<svg id="visual" viewBox="0 0 900 450" width="900" height="450" xmlns="http://www.w3.org/2000/svg" xmlns:xlink="http://www.w3.org/1999/xlink" version="1.1"><rect x="0" y="0" width="900" height="450" fill="#fff"></rect><defs><linearGradient id="grad1_0" x1="50%" y1="0%" x2="100%" y2="100%"><stop offset="10%" stop-color="#ffffff" stop-opacity="1"></stop><stop offset="90%" stop-color="#ffffff" stop-opacity="1"></stop></linearGradient></defs><defs><linearGradient id="grad2_0" x1="0%" y1="0%" x2="50%" y2="100%"><stop offset="10%" stop-color="#ffffff" stop-opacity="1"></stop><stop offset="90%" stop-color="#ffffff" stop-opacity="1"></stop></linearGradient></defs><g transform="translate(900, 0)"><path d="M0 405C-50.5 389.9 -101 374.9 -146.6 353.8C-192.2 332.8 -232.9 305.8 -272.9 272.9C-313 240.1 -352.3 201.4 -374.2 155C-396.1 108.5 -400.5 54.3 -405 0L0 0Z" fill="#001220"></path></g><g transform="translate(0, 450)"><path d="M0 -405C50.6 -394.6 101.3 -384.2 151.9 -366.8C202.6 -349.3 253.2 -324.7 286.4 -286.4C319.5 -248 335.1 -195.8 352 -145.8C368.8 -95.8 386.9 -47.9 405 0L0 0Z" fill="#001220"></path></g></svg>